<svg width="69" height="89" fill="none" xmlns="http://www.w3.org/2000/svg"><path d="M.515 70.401v18.565h67.668V70.401a7.818 7.818 0 00-7.807-7.807H8.323a7.817 7.817 0 00-7.808 7.807zm5.205 0A2.606 2.606 0 018.323 67.8h2.602v15.966H5.72V70.401zM16.131 67.8h6.73l11.488 11.488L45.838 67.8h6.725v15.966H16.131V67.8zm46.847 2.6v13.36h-5.205V67.796h2.603a2.607 2.607 0 012.602 2.606zm-24.501-2.6l-4.128 4.127-4.127-4.127h8.255z" fill="#FF6875"/><path d="M53.82 52.18h3.957v-5.206h2.602a7.818 7.818 0 007.808-7.807v-5.205a33.836 33.836 0 00-67.672.003v5.205a7.817 7.817 0 007.808 7.807h3.942a23.415 23.415 0 0041.556 5.202zm6.56-10.412h-2.754a23.4 23.4 0 00.146-2.602V33.96a23.4 23.4 0 00-.146-2.602h2.748a2.606 2.606 0 012.603 2.602v5.205a2.606 2.606 0 01-2.602 2.607l.005-.005zM34.35 5.336a28.68 28.68 0 0127.588 20.979 7.812 7.812 0 00-1.562-.157h-3.944a23.422 23.422 0 00-44.167 0H8.323a7.81 7.81 0 00-1.563.157 28.68 28.68 0 0127.59-20.98zM49.294 23.56a18.292 18.292 0 01-14.946 7.803H16.317a18.212 18.212 0 0132.978-7.803zM8.323 41.773a2.605 2.605 0 01-2.603-2.602v-5.205a2.606 2.606 0 012.603-2.602h2.753a23.425 23.425 0 00-.146 2.602v5.205c0 .87.049 1.738.146 2.602H8.323zm7.807-2.602v-2.602h18.22a23.51 23.51 0 0017.46-7.815c.505 1.69.761 3.446.76 5.21v5.206a18.11 18.11 0 01-1.76 7.807h-8.654l-2.29-2.286a7.809 7.809 0 01-11.042 0l-3.68 3.68a13.013 13.013 0 0017.009 1.21v2.598h4.928a18.208 18.208 0 01-30.95-13.01l-.001.002z" fill="#FF6875"/></svg>