<svg width="15" height="12" fill="none" xmlns="http://www.w3.org/2000/svg"><path d="M14.687 1.433c-.55.24-1.132.4-1.728.474A2.983 2.983 0 0014.28.249a6 6 0 01-1.9.726 3 3 0 00-5.192 2.05c-.002.23.021.46.07.685A8.49 8.49 0 011.074.572a3 3 0 00.922 4.009 2.962 2.962 0 01-1.355-.37v.034a3.014 3.014 0 002.4 2.948 2.994 2.994 0 01-.787.1 2.653 2.653 0 01-.568-.051 3.028 3.028 0 002.8 2.09 6.028 6.028 0 01-4.432 1.237 8.445 8.445 0 004.6 1.346 8.477 8.477 0 008.538-8.536c0-.133 0-.261-.01-.388a5.984 5.984 0 001.505-1.558z" fill="#03A9F4"/></svg>